<mxfile host="app.diagrams.net" modified="2024-04-17T04:03:56.346Z" agent="Mozilla/5.0 (Windows NT 10.0; Win64; x64) AppleWebKit/537.36 (KHTML, like Gecko) Chrome/123.0.0.0 Safari/537.36" version="24.2.5" etag="9rcJIUddYZNAn80lg7XG" type="device" pages="2">
  <diagram id="Q0MPvWvo_qGdSVNpndos" name="Page-1">
    <mxGraphModel dx="2333" dy="1160" grid="1" gridSize="10" guides="1" tooltips="1" connect="1" arrows="1" fold="1" page="1" pageScale="1" pageWidth="850" pageHeight="1100" math="0" shadow="0">
      <root>
        <mxCell id="0" />
        <mxCell id="1" parent="0" />
      </root>
    </mxGraphModel>
  </diagram>
  <diagram id="MzI9Qk2ZXhA7Ma7XLBjz" name="admin work flow">
    <mxGraphModel dx="808" dy="402" grid="1" gridSize="10" guides="1" tooltips="1" connect="1" arrows="1" fold="1" page="1" pageScale="1" pageWidth="850" pageHeight="1100" math="0" shadow="0">
      <root>
        <mxCell id="0" />
        <mxCell id="1" parent="0" />
        <mxCell id="UC9wWMT8W95THl_QKfSG-11" value="" style="edgeStyle=orthogonalEdgeStyle;rounded=0;orthogonalLoop=1;jettySize=auto;html=1;" edge="1" parent="1" source="UC9wWMT8W95THl_QKfSG-1" target="UC9wWMT8W95THl_QKfSG-2">
          <mxGeometry relative="1" as="geometry" />
        </mxCell>
        <mxCell id="UC9wWMT8W95THl_QKfSG-1" value="Admin" style="shape=umlActor;verticalLabelPosition=bottom;verticalAlign=top;html=1;outlineConnect=0;" vertex="1" parent="1">
          <mxGeometry x="100" y="240" width="30" height="60" as="geometry" />
        </mxCell>
        <mxCell id="UC9wWMT8W95THl_QKfSG-12" value="" style="edgeStyle=orthogonalEdgeStyle;rounded=0;orthogonalLoop=1;jettySize=auto;html=1;" edge="1" parent="1" source="UC9wWMT8W95THl_QKfSG-2" target="UC9wWMT8W95THl_QKfSG-4">
          <mxGeometry relative="1" as="geometry" />
        </mxCell>
        <mxCell id="UC9wWMT8W95THl_QKfSG-2" value="choose active examination" style="rounded=0;whiteSpace=wrap;html=1;" vertex="1" parent="1">
          <mxGeometry x="190" y="250" width="120" height="40" as="geometry" />
        </mxCell>
        <mxCell id="UC9wWMT8W95THl_QKfSG-3" value="Approve the claim" style="rounded=0;whiteSpace=wrap;html=1;" vertex="1" parent="1">
          <mxGeometry x="520" y="210" width="120" height="40" as="geometry" />
        </mxCell>
        <mxCell id="UC9wWMT8W95THl_QKfSG-14" value="" style="edgeStyle=orthogonalEdgeStyle;rounded=0;orthogonalLoop=1;jettySize=auto;html=1;" edge="1" parent="1" source="UC9wWMT8W95THl_QKfSG-4" target="UC9wWMT8W95THl_QKfSG-9">
          <mxGeometry relative="1" as="geometry" />
        </mxCell>
        <mxCell id="UC9wWMT8W95THl_QKfSG-15" value="" style="edgeStyle=orthogonalEdgeStyle;rounded=0;orthogonalLoop=1;jettySize=auto;html=1;" edge="1" parent="1" source="UC9wWMT8W95THl_QKfSG-4" target="UC9wWMT8W95THl_QKfSG-9">
          <mxGeometry relative="1" as="geometry" />
        </mxCell>
        <mxCell id="UC9wWMT8W95THl_QKfSG-16" value="" style="edgeStyle=orthogonalEdgeStyle;rounded=0;orthogonalLoop=1;jettySize=auto;html=1;" edge="1" parent="1" source="UC9wWMT8W95THl_QKfSG-4" target="UC9wWMT8W95THl_QKfSG-9">
          <mxGeometry relative="1" as="geometry" />
        </mxCell>
        <mxCell id="UC9wWMT8W95THl_QKfSG-4" value="View claim details" style="rounded=0;whiteSpace=wrap;html=1;" vertex="1" parent="1">
          <mxGeometry x="350" y="250" width="120" height="40" as="geometry" />
        </mxCell>
        <mxCell id="UC9wWMT8W95THl_QKfSG-19" value="" style="edgeStyle=orthogonalEdgeStyle;rounded=0;orthogonalLoop=1;jettySize=auto;html=1;" edge="1" parent="1" source="UC9wWMT8W95THl_QKfSG-5" target="UC9wWMT8W95THl_QKfSG-6">
          <mxGeometry relative="1" as="geometry" />
        </mxCell>
        <mxCell id="UC9wWMT8W95THl_QKfSG-5" value="Search&amp;nbsp; for inactive examination" style="rounded=0;whiteSpace=wrap;html=1;" vertex="1" parent="1">
          <mxGeometry x="190" y="350" width="120" height="40" as="geometry" />
        </mxCell>
        <mxCell id="UC9wWMT8W95THl_QKfSG-6" value="View the consolidated details" style="rounded=0;whiteSpace=wrap;html=1;" vertex="1" parent="1">
          <mxGeometry x="350" y="350" width="120" height="40" as="geometry" />
        </mxCell>
        <mxCell id="UC9wWMT8W95THl_QKfSG-18" value="" style="edgeStyle=orthogonalEdgeStyle;rounded=0;orthogonalLoop=1;jettySize=auto;html=1;" edge="1" parent="1" source="UC9wWMT8W95THl_QKfSG-7" target="UC9wWMT8W95THl_QKfSG-8">
          <mxGeometry relative="1" as="geometry" />
        </mxCell>
        <mxCell id="UC9wWMT8W95THl_QKfSG-7" value="New Examination" style="rounded=0;whiteSpace=wrap;html=1;" vertex="1" parent="1">
          <mxGeometry x="190" y="160" width="120" height="40" as="geometry" />
        </mxCell>
        <mxCell id="UC9wWMT8W95THl_QKfSG-8" value="Status Of Examination" style="rounded=0;whiteSpace=wrap;html=1;" vertex="1" parent="1">
          <mxGeometry x="350" y="160" width="120" height="40" as="geometry" />
        </mxCell>
        <mxCell id="UC9wWMT8W95THl_QKfSG-13" value="" style="edgeStyle=orthogonalEdgeStyle;rounded=0;orthogonalLoop=1;jettySize=auto;html=1;" edge="1" parent="1" source="UC9wWMT8W95THl_QKfSG-9" target="UC9wWMT8W95THl_QKfSG-10">
          <mxGeometry relative="1" as="geometry" />
        </mxCell>
        <mxCell id="UC9wWMT8W95THl_QKfSG-9" value="Reject the claim" style="rounded=0;whiteSpace=wrap;html=1;" vertex="1" parent="1">
          <mxGeometry x="520" y="290" width="120" height="40" as="geometry" />
        </mxCell>
        <mxCell id="UC9wWMT8W95THl_QKfSG-10" value="Provide Remarks" style="rounded=0;whiteSpace=wrap;html=1;" vertex="1" parent="1">
          <mxGeometry x="660" y="290" width="120" height="40" as="geometry" />
        </mxCell>
        <mxCell id="UC9wWMT8W95THl_QKfSG-17" value="" style="edgeStyle=orthogonalEdgeStyle;rounded=0;orthogonalLoop=1;jettySize=auto;html=1;entryX=0;entryY=0.5;entryDx=0;entryDy=0;exitX=1;exitY=0.5;exitDx=0;exitDy=0;" edge="1" parent="1" source="UC9wWMT8W95THl_QKfSG-4" target="UC9wWMT8W95THl_QKfSG-3">
          <mxGeometry relative="1" as="geometry">
            <mxPoint x="480" y="280" as="sourcePoint" />
            <mxPoint x="530" y="330" as="targetPoint" />
          </mxGeometry>
        </mxCell>
        <mxCell id="UC9wWMT8W95THl_QKfSG-20" value="" style="endArrow=classic;html=1;rounded=0;entryX=0.019;entryY=0.633;entryDx=0;entryDy=0;entryPerimeter=0;" edge="1" parent="1" target="UC9wWMT8W95THl_QKfSG-5">
          <mxGeometry width="50" height="50" relative="1" as="geometry">
            <mxPoint x="130" y="270" as="sourcePoint" />
            <mxPoint x="450" y="230" as="targetPoint" />
          </mxGeometry>
        </mxCell>
        <mxCell id="UC9wWMT8W95THl_QKfSG-21" value="" style="endArrow=classic;html=1;rounded=0;entryX=0;entryY=0.5;entryDx=0;entryDy=0;" edge="1" parent="1" target="UC9wWMT8W95THl_QKfSG-7">
          <mxGeometry width="50" height="50" relative="1" as="geometry">
            <mxPoint x="130" y="270" as="sourcePoint" />
            <mxPoint x="202" y="408" as="targetPoint" />
          </mxGeometry>
        </mxCell>
      </root>
    </mxGraphModel>
  </diagram>
</mxfile>
